<mxfile host="app.diagrams.net" modified="2023-04-17T09:27:35.101Z" agent="5.0 (Windows NT 10.0; Win64; x64) AppleWebKit/537.36 (KHTML, like Gecko) Chrome/111.0.0.0 Safari/537.36" version="20.6.2" etag="DAbJAda7mq4Cl4B70A0H" type="github">
  <diagram id="kpaAeynb1EBPsk53OQLx" name="第 1 页">
    <mxGraphModel dx="813" dy="403" grid="1" gridSize="10" guides="1" tooltips="1" connect="1" arrows="1" fold="1" page="1" pageScale="1" pageWidth="1169" pageHeight="1654" math="0" shadow="0">
      <root>
        <mxCell id="0" />
        <mxCell id="1" parent="0" />
        <mxCell id="2JjZRTCmiK5z6nt8Kl7W-11" value="" style="rounded=0;whiteSpace=wrap;html=1;labelBackgroundColor=#6F59FF;fillColor=#d5e8d4;strokeColor=#82b366;" vertex="1" parent="1">
          <mxGeometry x="85" y="120" width="120" height="320" as="geometry" />
        </mxCell>
        <mxCell id="2JjZRTCmiK5z6nt8Kl7W-2" value="" style="shape=image;verticalLabelPosition=bottom;verticalAlign=top;imageAspect=0;aspect=fixed;image=data:image/png,iVBORw0KGgoAAAANSUhEUgAAAKwAAABVCAYAAADUrA8JAAAAAXNSR0IArs4c6QAAIABJREFUeF7tnQl4VNXZx/93mTWTSTLZVxISVtkJoEIRRBEVZRNUoAi4VFE+tS1abf2kX23VWqv001atC6IFMYIIisW6oCggiuwIZCEJ2fdk9uXe+z3vmUyYLJAZEkL4nJMnz+TJ3HvuWX7nPe953/ecyyGUQi1wEbUAdxGVNVTUUAsgBGwIgouqBXolsJMmTRLF2P5hHgdULifPS1oPp/N4WFklSd1SZkFwKXZRVASHqNB3guBkn+xvUdXy99l6xCMLUoVcaMv7+GPnRdVzP9HC9jpgJ81cHJnWd8z9Lrd8v8fjMTT3SyDlDAhQAC3XcTwHlSC41Wrx7YKDe/741SdvnPqJcnDRVDsQEHqyMvzPH3hhQaPFucrhdEYxtM5nCZvR1WhUlkijfuVbz927CoCnJyscelZwLXA+cQiuJADS0ydpx10366lGi225LMt80Bmc4w0czyM1MfpQ+amCKz5a+1T9OWYTuq0HWqBXATtz8QORemP/f9Q1NN4sy3KPlY2A7Z+RWFxTfmj0uleeremBdg894hxboMegCKR8sxY9Eh0e3efNqtr6604Dez6L6NUJCNiBmcklZYU/jsp548nqQMoauubCtMD5pCHoGs36+cq4qITkdWWVNVfKsgwoCjyOJiie7l7AK+AENURdFNORCdhBWSmlpSePjgwBG3S39egNvQrYW+/4Y3x4XMJ7xSVVE7zASjAX7oGrsazbG0UMi4YxayI4jmfADu6XWl5ScGR4CNhub+puzbBXATt32cqE6Mi0jYUllZe1B7Y7i6qgLbBD+qdWVJXkDX/rpZVV3drCocy6tQW6k4IuF2zhXX9MDI9L2niyuOLSHgd2QFpl1ancYSFgu9yN5zWDXgXsLfetTDJF9tlYUFwxrqeBHTYgrbIiBOx5ha07Mu91wEab0t/PLywf29PADh2YVlVacGTYulf/VNkdDRvK4/y0QO8DNip9U35R+ZgOgVUUP8fqOTYI1ZhDOx2WgK0szh0aUgnOsV176LbeB6wp/YP8wvLsVsA2lJHtCY7MJLhNxjM0jc+Pe2Z/LufxQJdXCqHJCtHQ2koQAraHiOviY3odsDGm9A/y2gLbWI7GyaNgHZQOTlEg6zQMOskYBt7mhMJz7H9ivRlSpAG80w2xpqFd08hqER6TEQn/3AwNwmDsd9qsFdJhu0hSD93eq4BddPcTyeFxqR/kF5aN9pewTmsVqhZOReR/vkfNzVNhGT4QMRu2oXretTDu2gc5TIumy4Yj8aUcVC6eAf3RPKStfBVcm/gtArt6wTUwfrUPYfUSjP2uaLHDDhmQWll1Ki9kJegh8M71MRcNsNXzr0bEp3tR9l/zYB47DPGr30fFHTch8rPdkAxaNF45FilPvYHS+xfAsO9HZC1/tsM2qZ57JYy7DyOsxg1jfz9gQ3bYc2WoR++7OIC1VKLq59MQsX0fGq7Mhn1QFqL+vQN1118Bww9HIevUsIwaiNi1H6NmztXQ5RUhedX6dgs0RRRQufg6RP37W+iblFYqwZD+qeVVJXkjQouuHuUv6If1KmDJDtuhDttQBtugdDRemQ0oMhSOAyfLUAQekJvnfZ4DJ8lQeJ7puSDXbptE35GeG7PhC6jVEa1cs4P6pZQ1Fhwd8UYo+CVoiHryhl4HbHRHVgKKJSAGw3SQNapzN20pMgSLHZxHamclGJiZXFxVWjB63SsrQ+GFPUlgkM/qfcBG9nk/v7iiZx0HHI/0ZNPxusrCn+W88WRt8zaaQLfcBNnkocu70gK9CliKJTDEJW4oLO7Z4BfyJERonLVad81Wu8NlEzj5s/XrX9sAoL1e0ZXWDt3b5RboVcBSeGFYTPy7JWXVE71mLRm2ih/httSC68aSkoor6IwISx7GzFqUnHWFMBfthSwryiVDh75SsDP3wSK5iHO73Xx1dbUtBG+XWeuWDLoRg66Xp10AN83NssQCubs90cKNF5qz5RiwluK9UBQF8fHxuS6Xa68syYKoVsMUG7Nm/Xv/+sh/x223lyeUYUAt0KuAnbvkkdjwmIy1ZZW1VzEJ22PpNLDskdQqFLagKFCpVLh54S0fqzTqN+PiYtjIkSRvwdRqL/CCILBfSjzPn4fRFXhDKFRo3zDkgpuX/PfRUX2oLpIkNX311VeH/vznP1f0hlkmBGwzoT4Jy3jlOAarLy2+c7FsijZJokpsRtn7jT8PQbLRlkBfP1xQ2NsViuMUQRCsoijus9lsr65evXrjxxf4wJHeB2xcxtqy8gsrYf2B5Tke8xbM22eKNu3XG/Q8z/OgHxkyR383S9UzikCOa3EQt7Q110W6/aVoBw/uEPpO7qFsOrpPkCQp3e12DxNFUTQYDK8999xzj3/66aeNgcv87r2yVwHLdNjE5LVlFTVTLqRKoNFo4Ha7QWVQq9X2wUMGP5hfnP/a9u3bmZ4yd+7cgNstJyenHQjB3N+93R1cbgUFBXxiYmLiggULrpAk6RFBEJI9ivKrze+//0ZOTk6zYhRcnl29OuCG7+qDArm/o0VXIPd1/ZrWi647775T2fvdXuXA/gOyVqN9ptZau/Lo0aOurj/nos2Bf/3116/WaDSvqtXqst27d8979tlniy5EbXodsNFJyetLymsmXSgJS7rrgkULag7sO+jJy82NBC/8cud3O176qVsIXnjhhWiTKeYFQeCmqlSqe2fPnr3+QrRJrwL21jsejQ+L6XvaDttjQ7i1hM0el/2OwAkb1Wr1kAMHDuRs37n9cI8VpZc+iE6UXLZs2aMej+chtVr9m5tuuunFnzywtM07KjI1p+VcgqA6T4FG5Ybbo4KsBDsOWwN7yZBLXnPIjl/k5OSQztqrVu5BNUn3Xsxv3LhxhcPheEyn0/1m1qxZIWCZazYm8b3CksrLg1UJxmcdxS3jtuPD/ePwyZFRUII69pADZ6uQ3bW5kuSyywmJ8a+s37j+QTK5dm+fX9S58Zs2bVphs9lCwPq6kZ1LEJu48eSpSu+5BAEkEn8Jxno8fN16JIVXoNERiT9sWYhT9bE4bVE6e0YcxysReu6Ap7H0d+bKPEujtbZ4z549hSHp2qrdCNiHbDbb70IStrldKB422j9aKwBgCcp7rvgQnCUX3x42YliWBVHJKfjfz2bA5VEFkIP3bK3URNOPpwqOTdiW81xdQDf99C7iP/jgg4etVutvQ8D6A+u/zTsAKMZmHMesS7Zi61dhmH1NDT74NBpTLrXgy6Ip+PToiABy8AKbnhJ7vK7yyOU5r4WAPUOjhYBt2zDeTYgptM3buwnxLIlUgVhDEx6atg7btgMTRjQy6ZpXosOHO6Ixa6oTf/5kAcobojtVDQjYvmnx+RXFuePeX8PiYUOpfQuEgO0IWGNcyua8wvJRnQFLqsBtl/8HYa6jqKkTYYpw45PdJtw5swwnivVM/dTG9MUrO66HR/JFZXXMIQHbLz2xoLTw+NjzBKzPbMGO8cjKygq7+eabw/v166dVFIXcvZzH4+Ho1HGX68z+CVmWybdPN8iiKJK3VbJYLI5Vq1bVFxYWuv2CU86HZSMEbEfARsSnbM49eXZgqTdGpeXj1pGbsOkzIxbeUIm/rklBYqwLv/75KdjsPF5cn4zrrrDg3yem4ssTQ85qM2AncPdNKmwsOJa9pusSlps7dy4FGQgDBgzIvOGGG8bo9fo4l8ulcblcKqvVqpUkKVOj0V7CcUgAQIo2+ew5SZL4M8UZkEPD7XYrFJsgiqJHEAQC1OV2u8sURfmO47hKnU5nEwShZt++fQd/+OGHo2lpadaVK1cGtnrtfE4JAdshsAmpW3ILykaeScISrCa9Bb+cmoNd3zowYoAFMZFuPP1mKm6ZWo36JhHjhzeizizi090mXDNJxjPb5qPKHHHGIHACdkDfpKKGgmOjgwSWS0lJ0T722GNJFBui0WgGpqSkTBdFcaDL5dLZ7XajLMsmQRA0BGMzlAQmq7p/RFjnvJz5Coql8ZO8LkVRGjUaDZ0kfqK0tHSDx+PZ+/LLL5fs3bvX3gXLRwjYcwJW4bDg0s+RwP+Ak6Va3DG7HFu2R+M/30UhTCtDLSp4dEkR9FoJa7YmwKD3QAkfiNe+nnZGh4IX2OSi6rKC7EA2IZLXZ86cOal9+2bNVBRpEM/z1/A8H2+32zU00OiXYGw76NoFafnF3VJb+KK/goHXH3r/v+lZlJ8gCLJKpSK//1YA723YsGH36tWrHcE8o/naELDnAuyQ5EIszP4AH36uw9IZFUiOdqLBIsLm4fHZbhPGDmnCgBQb809VNKnxz42JmD7Jig+OTMOu/EEd9lOAKgH3zDPPxKrV+kvS0lLu5HmM83g8KR4Ps521uNYIGv9fJk0VwOPxsF9FZlM7XC43JI+HosGQkJwAc6MZp4pO0RadZuC90Psg5EA7JHjwBKIgQBQFqNQqCPSpUkGn1UFUiyw/USW2gr95oEiiKFbKsvze+++//9e1a9fSO8mCURdCwHYEbGRC2pYTBaUdqgQGjQMrpr2L/fvN6JvswFVj68AiUjlg56EIHDwRhrtmlYNvDkEl9WHPESN2HjRi8gQBf/xoIRod+nb6LFt0ZSQWVJYUjsl5bWVbOyz34IMPRo0ZM/4atZqfLyvSz6AoET7p6ZOabpcb5iYzLBYLbFY77DYb3C4P+5QlGW63h4HKICQpTBJYkpHSJxnjJoxD/vF8/LBnH3g6ayHI5JWkPARRhE6nQ0SUEYlJiYhLjGsVZE7ZCoLg4Xn+04qKiuX33ntvXhCPCgHbMbB9PjxRUDKi7XSqKBzmZu/ArBGf47m3kzDtsjroNKcFRGWdmqkDUUZai5xOFFew6cto3HVTBXaevBRv7ZrSTjUgYLPSE/OrSgvH+gHL/+EPz/SJS4ybGGEMu4/nlP6KLIcrVJDm5HQ40djQhNJTpaivrW+Bk2AMNA0dORSZ/fti//f7UZB7sh1gvnyCjflWiSL6ZPZB/8H9mQT2TzzPkxK9acuWLcveeuutQI/IDwHbtlMXLH86JTo68cMTBaXD2wKrFt145qbX0D+xBN8dCUdFFXXCaTB8u5c6YiXWJCF7SBNK6+PxyIYlqLf53gjqLQEBm9knIbe6rOjSnNdW1i9adK9p7Pjx001G1V2CgNGKLGn8wbFarKgorUBJcQmaGs1sqmf50MZGv21Uvimd1AL6pelektzsb0qiKGLKtCmIjonGto+2oaS4tEPOmfRstW+MVALvtO/7f0fPpqJk9s/E4GGDO5K0ZlEUH33iiSde3rt3b+tR3vFoC7lm27bLHcufTgmLSfroeH7JsI6sBMNSCtAvvvmNMoELMe+eQg4oqo3DD0VZkJXW0y5t9U5PjT1sMPA3R/CeYTHRYfcb9cIQlciF+SQqlaeJSdMylBaVwOF0tuiYvoUWTfkEL9lSPR43UwG8oJ5eiFGdfXppTGwM5twyh201f29dDmqqAzt05vSgIOsAz8AlgOlXrdZArVYxqSoIXp12RPZwpKantmpuykOtVu8/fPjw7Mcee+xkADNCCNhggaXp3W9GDqCNW19CzgafftvyjUISlsPoQQm1mclhBzhIo/UaPsJfohKoxYXFKC0uhd3mgCRLcHvccNgdcLmccDqdDFQfnAEVTFGQNaAfps+ajtqaWmx4ZwNsVjr+oCvp9GHOJHkJYJVKjaSUREy9bip0el2rzFUqld3pdN4+f/78dQE8NQRssMAG0KhBXUIrbpNRjWFZUUiN00MQvOopSR+SinU1dSgqKERB3knYbHY4nQ4Gp09ydsWOSveOv2ICxl8xHsePHsPWzVvhcZ+n9zJzHK678VoMHT60lamNJLNOp9v87LPPztm+fXtnD2fAWm223+lD8bBezrwqQeJHx/NLO1QJgqLxLBcTLBq1gCF9I9EvJRwGvdhyVgd1Iq32Dx84jIP7D8JitjDJ6YXTp4cEGyDevjCUH6kD/Qb0w7c7v8X2z748PweGkO1KljFoyCDMmDOjnbNCFMVD+fn50x5++OHO3t7Hb9q0eYXNZgnFw/q607voStrSkZWgu2AVBQ7pSQYMy4xEpEHdki1JVYLzxPFc7Nn5LZoam7rrkR3mQ7rl7ffcDmOEER9u+pANkLbnIQRTgLaLLrLbks2PtqnTd6ZoE+YunAedTttqD4VGo6lXqVSLp0+fvrmT5/GbN29eYbGEgG1pJ4rWiujENRtMJ/pfSxItwqDG8KxIZCSFg87E8LcoFJ0swq4du1BWWsb00U7NSOyFNm3PpG/9v45UBgKJ7ouLj8OSXyxhNuR1b76DkuJT3oWTyrtQogWT/7kttIjS6rSgLejMTEXvyG32Zqk1amhosaWh+9iJLczyIbbosSLUGg0SkhLYM/yTKIpOrVb7m+nTp/+tE0cCv3nT5hWWkIQ93XwsgNv/fNhzpdPvPoJSreaRmWTAyP4m6LVCC6gEVF1tHb795lsU5BWwqZMWYCSV2IEZzStw/78FXmj+v9fb5IVMxT4Fuqf5PoJOo6UVu5oBRvl6vVUcg84QbmDmLEqkgvierRKbV/hi6wgzdi8R3Axqq8FIpDVbI/z/7wOaPn1Oi7Y2WY7jJL1e/48//elPD+3atYtiDc6UfMDSjoNHQnu6AJzLjoOzMU2wEqCjBkQhI0EPjUbdSocj3bS6qpqpAtSRPkBFkm48CyjxAsggFFqAbJFu7EA57/fsJcvNqi0NBJvNxnRfNjU3xwwQwFqt1iuZm8/u8i3yfPXwfRfMWCUgD+0/hNzjuaw8LCkKomNjcOn4caxuVquVDYrw8PBWWVP0l16v/6KkpOTWe+6552xOhBCwbTulK5sQ2+ZFjGSlReOyIbE4su977N65G7Nvns2m4rZBIi2wnMFD5TP8k7QMJDnsdmzd/DHKy8pPX64AI7JHYPzE8WyDpMi5oBdroeKtkBQVHFIknNKZ3kHW+VNphiC1wnd8KIEfERmBS4ZewqS/D1gDAUtjqFmbIdgNBkNJYWHh5E5ctfzmTZtWWGgTokb3yKw5s17oQuRX5xU6wxVdX+6e86Pb3zh38coEU0LKu0Vl1T/rLID7bI8lY/qksf0xffJQxJiM+H7PXjz+28cxd8E8pPftwwJQgklkyrLb7YiMjAzoNip7Y0MjcyC0JJL2Bj0M4RGI1R1FZvhnMGkLoOLtkBUK3olCkXkiiswT4FFaHGsBPS+QixobG5mkjeJVECQFksjDpRbYO840ak11SUnJxOXLlx87u0qwaYXFantMpw0By9qpO44q0us0mH/jOFx52SAmSWlq/uc/XsWub3bi1kW3wmA0BH3SAC3CGhoaEB1N223OfYzznISM8C8wMmYNBM4FWebQ5BAgyRwMGgkalYJK+2DsrloOhyfqnAVY24gxh4McHC5ERUZi3DcFSM+rgUctwKkWIQkc6lKj7bs566Xz/7Ly4NmAZZsQLdbfanXah2fPnv33cy5gICPsYpCwN9y6MiY6OenNiqraa/3PKg24foqMoekGXJGdxbxRtOI/euQI01NHjhmJjIwMv0DAgHNlul99fT0iIiLarbIDz4VDon4/xsS+DJ3gDQgrrNbi+bUp4Dlg+S0lyIh3QAGP3MZrcLB2PlMVAk1URpoJvG7h1j4A0sUNBgOzQETVWHHZ5ycQbqaQWK9y7THo3EXRuhlZ/3z84zM9j2KAl9977+NOt/sBrVa7Yvbs2S//5IG9Zu6DppjE/i/XNjTMCRZY8lr1TxKhdlVDobfFCAJzRSYkJiDKFNXKxulbsbfEmjKh6T0T9kzeK9+UqtfTfrFzSQquTP4fxGp/9C64OGDD9lg8+68U/HpBCWZOqoHQvBhzyuHYWfkAquxDOmWC9GvSTwlU0lVpUec1i522Mvjsu766xVU0YfTX+TBYnOBJPdJqYEuP//0zfzP/z0p0vKXmxRdfTIiNiXlZluXRakFYMnvevE87Ldy5NFMn95z7/HYeCjP+xofCk1OTVzWabbcpshxUYGhafBgmjoyDWvTe1jZqyuduJf9/TU0N6uvqmTmJzD2k25F+mpSSxAz5/p3tqyapFiS5jMbgF0a0yAoTa3Bd6i8hcE6WpYfj8NCqTLglDn+47yRcNrKbKjAZ3FR4HK6fi8O1c8FxZz58hiQqxd9S+WkgEbBUv8qKSmauI3cyWTAiIo2IT4hnA5fVTVEQVWOBsdEO0S1Bq/Aek6B5/JX/Ln+qI2DnDh6snvbAAzO1ev3fBI7bu2PbzkUvrnnxguwu7lXAUnzxvGXP/5fZ6nhSkk6H9HU2NsjNelV2AuJN2naXEqgupwv5eQXY9/0PKCwogrmpCR7fue/Nd1BDkEROSk7GmMvGYODgAQwCn1QiWEnKmkymoPVYmuZNmgJMTfmNV3/mgPI6NRatHMT2n9U0qGG183h6eT7iIryRfsWWy/FNxS/Bcx27+EkvNZvNbACRVG1sbMKur3fh0L6DLJhGkuRW6g95uPpkpOPSy8dh4OCB4EW+5TgnUSW6Y+psj57Ys2PVp/X1LMi4urqaM5vN6ptnzkzWGYyzZE65Pyoqyu2wWu+4a9myzy6EdPXOg70sjZk4I7XP4Cv+bre7J7kld5jS6SFZCqKNWlx7eTI0qvZCuampCZ989AmOHDrKVvqUfHGk3j1U3i0p1ME+lUCjViOzXyaLpCKXJiX6rra2lknitt6izpqQgI1UF2Na6gpvvAAP7DgQgQ2fxyJ7sJmdWDNlTD1mTqzxblrhgPymK7GnalmHwNKsQPUimypN/wTolo1bmFuZLCA8OT+abcin6+eNxw3T61nAzc8mTYCq2UxHtliL2ZznsFrZ8UzsSAieXiwpq1wuV4zL5eqj1WrrwnS6p5/+y1/eKCwsPJc9YZ01U0Df9zpgqdTpkyZpL+8/eUVp7qHfOh22s9p4CKTMzDTcMH1yK1cmSVbqyJx1OTiZX8ikIpm7mAdKo2k29p9+lwHpgjTFOp2ulg2EKWkpmHvrTUwPpkQLL5K6dH9wiYPI23Ft6q+gF7wzqVviwYkKisq12LYzCoumV8Kg9k7/MkR8V30XTpongetg2xWVg8oQFhbGBuG/Vq9lTgMaSOQcoTp6nRmn9XLfosxXv2uun4rJV01mdaXrrBaL2+F0upkq5XU7K7IsS06ns1hQuK9cLsfahx59dPeFPiCvVwJL4/uOux66L/fgd3+2WBrPSgdJjUGXDMKMm1pHIlEHbVy/EXv37GU6IW3WI+niLx19eq5v2qdPmvqtVltLGN7AQQOwYPECtuGPVALSAQmUYBNNFCOi38KAiI/BNR+K2GAX2fb0KdkNTML6jPl1rr7YVfkALO64do+hxRXprSTpqU60teadf61ncQN6fRhzF/uSr37M7dsML0lnql9EhBGL71zM4gsEQZBUKtXr1oaGNRaLhV5VxgzVHo9Hdtps9Yc++aR49fbtpHwHZ8AOtpECuL7XAnv37cvu//HIkacsFstZ3UssdK4NsNQ5eSfysObVNXTSBJM2BgN1pshAjIqKwqBLBqJPejpIFywqLMKxH4/BbrOzjqUNhVYbuTK9GwYXLlmIoSOGMpsuSeFAHQht218n1iM79lUk6feyrq+3ifh6XwSuHlcPrejdn+ZUDPiu8h6U2kZ32H1kDybpSpsNKX727dX/Qu6xEwg3hrPBRKxFRkWyNklLS4PdYWfB51Q/WpAxnd7lYguyyVdPxpSpV5JElnUazZN7vv/+v7vx4I0A8Av+kl4L7LK7719Wdqr4SafDqWX+eL/BfTqunl7mraBPRho/+erJLQosQfnvLf/Gji+/Zi1C07hW6xXUqWmpmDV3NiJNkcjISEdeXgELzG6sb8B777zHVteUaKp1OLzbYIaNGIp58+exGADfwutczhAg5TRMrMaImLcQpzsKATbSoEGGDbK5mt2JONZwI4rMl3e4vPDprjTg6Pmk8rz+8htw2h0s0IbKmtE3AzPmzGT1S0/vg9zcPGYJqamsxqYNm5h1hJLFYkVGZjrm3zafZgxJp9P9fs+ePX8MARv8IGJ3zJx5c+bokSOnGQwGo5dEyavNNR8S5zvSR+AEzhgTma7TaRfJssSkMUnNt19/G3m5+UzqGI3hrINpAbVo6W3wyBISEuIxYEB/VFVV48SJE0xq1VXX4u0332aSiHTapiYzgyAmJhqLf7EE0dEmttih/5Eh3mf+6mzngb/K4V1zuWDS5iJBdwhasQ4eWYsGVx+UW0fB5olgryz13eNzUdMn1YsGn88WfDL/JNa+uZZFi5EdOjo2GrctvQ1OtxvJyYkYMGAAysrKcOJELpPIVeWVWPf2O3A6HAziMIMBt9+zlGYct1ar/fX111//v71h2j8bMr1VwraoYYHw/ten/zo6JSPlI0VRmNJHwdevvfQ6KsorvKF8hjAG4JSpU3D9jOlscdanTx+mGhAItPpnZqImM175+ys4dOAQmzrJVET3kc56252LkNYnjYFE0FKH+wN7Jmjb6slUPl+MjXePmdcsoIDiXymEsOMa04Aj8xULVWy+6MfDP2LD+g1skUVp6rVTMfnqK1m5+vbNQGRkFCTJ01I/Ummef+Z5tkBjuy60Wiz9xRIayHZRFJfMnDnz3RCwgRDXxWueeOKJ5MTExDUOh2My7XIl8LzTez2TLDqtloG39K6lrFMJQHKz+jqedLqSklLk5+fh+93fY9vWbaxEZouFgUmg3DjnRqSmpbSU1BfB1TKy/Ejz5dtuF0AHNPoDHWycAkVofbbtc9AZBOS9u/PuOzFh0s9gDA9n9tmW+jmdKD5VgpKSEny8ZSt27tjJZhwK6p45bwbp5Ba1Wj1j6dKln3exK8777b1dwgbUAPfdcV9GZWPlu7m5udk+WypN6yQ9NaIGWpUX2AWLFiBrYBbS09OR2TeTdTIlkjy7d39Lph22VcUHrNVlhVui3Qdg0LZ1dwZUuAAv6kyt6Cgbdr6BB9CKWhbLu+j2RUhKSUa/fllswcVMW836+I5wwBDTAAADkElEQVSvv2EWkO3/+QK7vtnFvrN7HBDVAgX1OIYNG7Z41apVIQkbYH916bJbb100rLa24uP8/PykthmpBBXC1KQSyJg0ZRIzmJNkGTMmu9mTJbOp/+DBQ2yb9dYPPsKhg4fYlGlxWVgQTW9OakENvdob33DVNVdh5JhRbPYYOXKEt350noLZjP379zOP37trc5B7/ARbQNKAlGRJiYqKqgkPD5/1xRdffNOb60pl+38hYadOnRoWERGxJDIycha5dH2BMx6PR7GarVJVedUou9VhiDJFYuHiheib1RfJycnkfmTSNSYmhpmIvtnxDd55+x2yDihavbY6LjH2R71BT++U9bc/BtpmbY96PesrZpslbMtzOnk3bEteTodTLDlZMtxhd+hpy83iOxYjJTWFna1VU1PLLCBUP7J6fP3lN3jvnRwyzSn6MF250RRxRIHSZG40v7Nj5w7ahNjr3/YYaOP39oF3xvLNxVyhYVLDCw11DXfRGa1k1rrtjtsYsMWnipnkjTAaUVVRhbdXv4Xa2jra02XX6DRPOmTHUwEe43PB2ueqq66K4Dzc8/W19T+XZVnom9kXi5YuQkxcDE6dKmELvMhIIztWad1b65hZi+M4q16r/31CRsJfL7Z3kf2/B5ZIys7OHhKmMqy2mM2jaFEWZghDVr8sxMbHsSmGDOuFJwuZU4DsZ6JK3KB4lF9/d/g7OpKytydu4sSJQzg395LFbLmMZk1aVNJ5B3QUEjk/Sk+V4GTBSV/97DzPbzC7zA8fP368s7MIel3dfxLAkqt39PDRlxv0hpdsVtsgepeA79Bhphc1H+LGcZyD5/kvXR7Xrw4cPXC0t5t4/GjiJ1w6YSJkPO+wO4bSexM6qh8UODie22y1WR87VnAs9yKqX0tVfyrAMi5HjBiRFamPvN3tdN+gQEmXZEkFGQrHc01QkM8J3DqHxZGz7/g+2j14wf3mQYo3fuzYsVk6Iexuh8M+jeOQIksyuffoJR4WSZKOCYLwblN907tHC49WXoT1Y83xUwLW1//C5AmTh+gN+qFOq1NHRwtDQaXH5Tn81Z6vii90NFKQkLa7fPDgwerE8MSBol4c6HQ5jbzCS7zA1zU1Nh3cc3DPRV+/nyKwbTu5daBCV4kJ3X9eWyAE7Hlt3lDm3d0CIWC7u0VD+Z3XFggBe16bN5R5d7dACNjubtFQfue1BULAntfmDWXe3S3wfwHVn1UGHYX7AAAAAElFTkSuQmCC;labelBackgroundColor=#6F59FF;fillColor=#006633;" vertex="1" parent="1">
          <mxGeometry x="100" y="160" width="80" height="40" as="geometry" />
        </mxCell>
        <mxCell id="2JjZRTCmiK5z6nt8Kl7W-5" value="" style="shape=image;verticalLabelPosition=bottom;verticalAlign=top;imageAspect=0;aspect=fixed;image=data:image/png,iVBORw0KGgoAAAANSUhEUgAAAKwAAABVCAYAAADUrA8JAAAAAXNSR0IArs4c6QAAIABJREFUeF7tnQl4VNXZx/93mTWTSTLZVxISVtkJoEIRRBEVZRNUoAi4VFE+tS1abf2kX23VWqv001atC6IFMYIIisW6oCggiuwIZCEJ2fdk9uXe+z3vmUyYLJAZEkL4nJMnz+TJ3HvuWX7nPe953/ecyyGUQi1wEbUAdxGVNVTUUAsgBGwIgouqBXolsJMmTRLF2P5hHgdULifPS1oPp/N4WFklSd1SZkFwKXZRVASHqNB3guBkn+xvUdXy99l6xCMLUoVcaMv7+GPnRdVzP9HC9jpgJ81cHJnWd8z9Lrd8v8fjMTT3SyDlDAhQAC3XcTwHlSC41Wrx7YKDe/741SdvnPqJcnDRVDsQEHqyMvzPH3hhQaPFucrhdEYxtM5nCZvR1WhUlkijfuVbz927CoCnJyscelZwLXA+cQiuJADS0ydpx10366lGi225LMt80Bmc4w0czyM1MfpQ+amCKz5a+1T9OWYTuq0HWqBXATtz8QORemP/f9Q1NN4sy3KPlY2A7Z+RWFxTfmj0uleeremBdg894hxboMegCKR8sxY9Eh0e3efNqtr6604Dez6L6NUJCNiBmcklZYU/jsp548nqQMoauubCtMD5pCHoGs36+cq4qITkdWWVNVfKsgwoCjyOJiie7l7AK+AENURdFNORCdhBWSmlpSePjgwBG3S39egNvQrYW+/4Y3x4XMJ7xSVVE7zASjAX7oGrsazbG0UMi4YxayI4jmfADu6XWl5ScGR4CNhub+puzbBXATt32cqE6Mi0jYUllZe1B7Y7i6qgLbBD+qdWVJXkDX/rpZVV3drCocy6tQW6k4IuF2zhXX9MDI9L2niyuOLSHgd2QFpl1ancYSFgu9yN5zWDXgXsLfetTDJF9tlYUFwxrqeBHTYgrbIiBOx5ha07Mu91wEab0t/PLywf29PADh2YVlVacGTYulf/VNkdDRvK4/y0QO8DNip9U35R+ZgOgVUUP8fqOTYI1ZhDOx2WgK0szh0aUgnOsV176LbeB6wp/YP8wvLsVsA2lJHtCY7MJLhNxjM0jc+Pe2Z/LufxQJdXCqHJCtHQ2koQAraHiOviY3odsDGm9A/y2gLbWI7GyaNgHZQOTlEg6zQMOskYBt7mhMJz7H9ivRlSpAG80w2xpqFd08hqER6TEQn/3AwNwmDsd9qsFdJhu0hSD93eq4BddPcTyeFxqR/kF5aN9pewTmsVqhZOReR/vkfNzVNhGT4QMRu2oXretTDu2gc5TIumy4Yj8aUcVC6eAf3RPKStfBVcm/gtArt6wTUwfrUPYfUSjP2uaLHDDhmQWll1Ki9kJegh8M71MRcNsNXzr0bEp3tR9l/zYB47DPGr30fFHTch8rPdkAxaNF45FilPvYHS+xfAsO9HZC1/tsM2qZ57JYy7DyOsxg1jfz9gQ3bYc2WoR++7OIC1VKLq59MQsX0fGq7Mhn1QFqL+vQN1118Bww9HIevUsIwaiNi1H6NmztXQ5RUhedX6dgs0RRRQufg6RP37W+iblFYqwZD+qeVVJXkjQouuHuUv6If1KmDJDtuhDttQBtugdDRemQ0oMhSOAyfLUAQekJvnfZ4DJ8lQeJ7puSDXbptE35GeG7PhC6jVEa1cs4P6pZQ1Fhwd8UYo+CVoiHryhl4HbHRHVgKKJSAGw3SQNapzN20pMgSLHZxHamclGJiZXFxVWjB63SsrQ+GFPUlgkM/qfcBG9nk/v7iiZx0HHI/0ZNPxusrCn+W88WRt8zaaQLfcBNnkocu70gK9CliKJTDEJW4oLO7Z4BfyJERonLVad81Wu8NlEzj5s/XrX9sAoL1e0ZXWDt3b5RboVcBSeGFYTPy7JWXVE71mLRm2ih/httSC68aSkoor6IwISx7GzFqUnHWFMBfthSwryiVDh75SsDP3wSK5iHO73Xx1dbUtBG+XWeuWDLoRg66Xp10AN83NssQCubs90cKNF5qz5RiwluK9UBQF8fHxuS6Xa68syYKoVsMUG7Nm/Xv/+sh/x223lyeUYUAt0KuAnbvkkdjwmIy1ZZW1VzEJ22PpNLDskdQqFLagKFCpVLh54S0fqzTqN+PiYtjIkSRvwdRqL/CCILBfSjzPn4fRFXhDKFRo3zDkgpuX/PfRUX2oLpIkNX311VeH/vznP1f0hlkmBGwzoT4Jy3jlOAarLy2+c7FsijZJokpsRtn7jT8PQbLRlkBfP1xQ2NsViuMUQRCsoijus9lsr65evXrjxxf4wJHeB2xcxtqy8gsrYf2B5Tke8xbM22eKNu3XG/Q8z/OgHxkyR383S9UzikCOa3EQt7Q110W6/aVoBw/uEPpO7qFsOrpPkCQp3e12DxNFUTQYDK8999xzj3/66aeNgcv87r2yVwHLdNjE5LVlFTVTLqRKoNFo4Ha7QWVQq9X2wUMGP5hfnP/a9u3bmZ4yd+7cgNstJyenHQjB3N+93R1cbgUFBXxiYmLiggULrpAk6RFBEJI9ivKrze+//0ZOTk6zYhRcnl29OuCG7+qDArm/o0VXIPd1/ZrWi647775T2fvdXuXA/gOyVqN9ptZau/Lo0aOurj/nos2Bf/3116/WaDSvqtXqst27d8979tlniy5EbXodsNFJyetLymsmXSgJS7rrgkULag7sO+jJy82NBC/8cud3O176qVsIXnjhhWiTKeYFQeCmqlSqe2fPnr3+QrRJrwL21jsejQ+L6XvaDttjQ7i1hM0el/2OwAkb1Wr1kAMHDuRs37n9cI8VpZc+iE6UXLZs2aMej+chtVr9m5tuuunFnzywtM07KjI1p+VcgqA6T4FG5Ybbo4KsBDsOWwN7yZBLXnPIjl/k5OSQztqrVu5BNUn3Xsxv3LhxhcPheEyn0/1m1qxZIWCZazYm8b3CksrLg1UJxmcdxS3jtuPD/ePwyZFRUII69pADZ6uQ3bW5kuSyywmJ8a+s37j+QTK5dm+fX9S58Zs2bVphs9lCwPq6kZ1LEJu48eSpSu+5BAEkEn8Jxno8fN16JIVXoNERiT9sWYhT9bE4bVE6e0YcxysReu6Ap7H0d+bKPEujtbZ4z549hSHp2qrdCNiHbDbb70IStrldKB422j9aKwBgCcp7rvgQnCUX3x42YliWBVHJKfjfz2bA5VEFkIP3bK3URNOPpwqOTdiW81xdQDf99C7iP/jgg4etVutvQ8D6A+u/zTsAKMZmHMesS7Zi61dhmH1NDT74NBpTLrXgy6Ip+PToiABy8AKbnhJ7vK7yyOU5r4WAPUOjhYBt2zDeTYgptM3buwnxLIlUgVhDEx6atg7btgMTRjQy6ZpXosOHO6Ixa6oTf/5kAcobojtVDQjYvmnx+RXFuePeX8PiYUOpfQuEgO0IWGNcyua8wvJRnQFLqsBtl/8HYa6jqKkTYYpw45PdJtw5swwnivVM/dTG9MUrO66HR/JFZXXMIQHbLz2xoLTw+NjzBKzPbMGO8cjKygq7+eabw/v166dVFIXcvZzH4+Ho1HGX68z+CVmWybdPN8iiKJK3VbJYLI5Vq1bVFxYWuv2CU86HZSMEbEfARsSnbM49eXZgqTdGpeXj1pGbsOkzIxbeUIm/rklBYqwLv/75KdjsPF5cn4zrrrDg3yem4ssTQ85qM2AncPdNKmwsOJa9pusSlps7dy4FGQgDBgzIvOGGG8bo9fo4l8ulcblcKqvVqpUkKVOj0V7CcUgAQIo2+ew5SZL4M8UZkEPD7XYrFJsgiqJHEAQC1OV2u8sURfmO47hKnU5nEwShZt++fQd/+OGHo2lpadaVK1cGtnrtfE4JAdshsAmpW3ILykaeScISrCa9Bb+cmoNd3zowYoAFMZFuPP1mKm6ZWo36JhHjhzeizizi090mXDNJxjPb5qPKHHHGIHACdkDfpKKGgmOjgwSWS0lJ0T722GNJFBui0WgGpqSkTBdFcaDL5dLZ7XajLMsmQRA0BGMzlAQmq7p/RFjnvJz5Coql8ZO8LkVRGjUaDZ0kfqK0tHSDx+PZ+/LLL5fs3bvX3gXLRwjYcwJW4bDg0s+RwP+Ak6Va3DG7HFu2R+M/30UhTCtDLSp4dEkR9FoJa7YmwKD3QAkfiNe+nnZGh4IX2OSi6rKC7EA2IZLXZ86cOal9+2bNVBRpEM/z1/A8H2+32zU00OiXYGw76NoFafnF3VJb+KK/goHXH3r/v+lZlJ8gCLJKpSK//1YA723YsGH36tWrHcE8o/naELDnAuyQ5EIszP4AH36uw9IZFUiOdqLBIsLm4fHZbhPGDmnCgBQb809VNKnxz42JmD7Jig+OTMOu/EEd9lOAKgH3zDPPxKrV+kvS0lLu5HmM83g8KR4Ps521uNYIGv9fJk0VwOPxsF9FZlM7XC43JI+HosGQkJwAc6MZp4pO0RadZuC90Psg5EA7JHjwBKIgQBQFqNQqCPSpUkGn1UFUiyw/USW2gr95oEiiKFbKsvze+++//9e1a9fSO8mCURdCwHYEbGRC2pYTBaUdqgQGjQMrpr2L/fvN6JvswFVj68AiUjlg56EIHDwRhrtmlYNvDkEl9WHPESN2HjRi8gQBf/xoIRod+nb6LFt0ZSQWVJYUjsl5bWVbOyz34IMPRo0ZM/4atZqfLyvSz6AoET7p6ZOabpcb5iYzLBYLbFY77DYb3C4P+5QlGW63h4HKICQpTBJYkpHSJxnjJoxD/vF8/LBnH3g6ayHI5JWkPARRhE6nQ0SUEYlJiYhLjGsVZE7ZCoLg4Xn+04qKiuX33ntvXhCPCgHbMbB9PjxRUDKi7XSqKBzmZu/ArBGf47m3kzDtsjroNKcFRGWdmqkDUUZai5xOFFew6cto3HVTBXaevBRv7ZrSTjUgYLPSE/OrSgvH+gHL/+EPz/SJS4ybGGEMu4/nlP6KLIcrVJDm5HQ40djQhNJTpaivrW+Bk2AMNA0dORSZ/fti//f7UZB7sh1gvnyCjflWiSL6ZPZB/8H9mQT2TzzPkxK9acuWLcveeuutQI/IDwHbtlMXLH86JTo68cMTBaXD2wKrFt145qbX0D+xBN8dCUdFFXXCaTB8u5c6YiXWJCF7SBNK6+PxyIYlqLf53gjqLQEBm9knIbe6rOjSnNdW1i9adK9p7Pjx001G1V2CgNGKLGn8wbFarKgorUBJcQmaGs1sqmf50MZGv21Uvimd1AL6pelektzsb0qiKGLKtCmIjonGto+2oaS4tEPOmfRstW+MVALvtO/7f0fPpqJk9s/E4GGDO5K0ZlEUH33iiSde3rt3b+tR3vFoC7lm27bLHcufTgmLSfroeH7JsI6sBMNSCtAvvvmNMoELMe+eQg4oqo3DD0VZkJXW0y5t9U5PjT1sMPA3R/CeYTHRYfcb9cIQlciF+SQqlaeJSdMylBaVwOF0tuiYvoUWTfkEL9lSPR43UwG8oJ5eiFGdfXppTGwM5twyh201f29dDmqqAzt05vSgIOsAz8AlgOlXrdZArVYxqSoIXp12RPZwpKantmpuykOtVu8/fPjw7Mcee+xkADNCCNhggaXp3W9GDqCNW19CzgafftvyjUISlsPoQQm1mclhBzhIo/UaPsJfohKoxYXFKC0uhd3mgCRLcHvccNgdcLmccDqdDFQfnAEVTFGQNaAfps+ajtqaWmx4ZwNsVjr+oCvp9GHOJHkJYJVKjaSUREy9bip0el2rzFUqld3pdN4+f/78dQE8NQRssMAG0KhBXUIrbpNRjWFZUUiN00MQvOopSR+SinU1dSgqKERB3knYbHY4nQ4Gp09ydsWOSveOv2ICxl8xHsePHsPWzVvhcZ+n9zJzHK678VoMHT60lamNJLNOp9v87LPPztm+fXtnD2fAWm223+lD8bBezrwqQeJHx/NLO1QJgqLxLBcTLBq1gCF9I9EvJRwGvdhyVgd1Iq32Dx84jIP7D8JitjDJ6YXTp4cEGyDevjCUH6kD/Qb0w7c7v8X2z748PweGkO1KljFoyCDMmDOjnbNCFMVD+fn50x5++OHO3t7Hb9q0eYXNZgnFw/q607voStrSkZWgu2AVBQ7pSQYMy4xEpEHdki1JVYLzxPFc7Nn5LZoam7rrkR3mQ7rl7ffcDmOEER9u+pANkLbnIQRTgLaLLrLbks2PtqnTd6ZoE+YunAedTttqD4VGo6lXqVSLp0+fvrmT5/GbN29eYbGEgG1pJ4rWiujENRtMJ/pfSxItwqDG8KxIZCSFg87E8LcoFJ0swq4du1BWWsb00U7NSOyFNm3PpG/9v45UBgKJ7ouLj8OSXyxhNuR1b76DkuJT3oWTyrtQogWT/7kttIjS6rSgLejMTEXvyG32Zqk1amhosaWh+9iJLczyIbbosSLUGg0SkhLYM/yTKIpOrVb7m+nTp/+tE0cCv3nT5hWWkIQ93XwsgNv/fNhzpdPvPoJSreaRmWTAyP4m6LVCC6gEVF1tHb795lsU5BWwqZMWYCSV2IEZzStw/78FXmj+v9fb5IVMxT4Fuqf5PoJOo6UVu5oBRvl6vVUcg84QbmDmLEqkgvierRKbV/hi6wgzdi8R3Axqq8FIpDVbI/z/7wOaPn1Oi7Y2WY7jJL1e/48//elPD+3atYtiDc6UfMDSjoNHQnu6AJzLjoOzMU2wEqCjBkQhI0EPjUbdSocj3bS6qpqpAtSRPkBFkm48CyjxAsggFFqAbJFu7EA57/fsJcvNqi0NBJvNxnRfNjU3xwwQwFqt1iuZm8/u8i3yfPXwfRfMWCUgD+0/hNzjuaw8LCkKomNjcOn4caxuVquVDYrw8PBWWVP0l16v/6KkpOTWe+6552xOhBCwbTulK5sQ2+ZFjGSlReOyIbE4su977N65G7Nvns2m4rZBIi2wnMFD5TP8k7QMJDnsdmzd/DHKy8pPX64AI7JHYPzE8WyDpMi5oBdroeKtkBQVHFIknNKZ3kHW+VNphiC1wnd8KIEfERmBS4ZewqS/D1gDAUtjqFmbIdgNBkNJYWHh5E5ctfzmTZtWWGgTokb3yKw5s17oQuRX5xU6wxVdX+6e86Pb3zh38coEU0LKu0Vl1T/rLID7bI8lY/qksf0xffJQxJiM+H7PXjz+28cxd8E8pPftwwJQgklkyrLb7YiMjAzoNip7Y0MjcyC0JJL2Bj0M4RGI1R1FZvhnMGkLoOLtkBUK3olCkXkiiswT4FFaHGsBPS+QixobG5mkjeJVECQFksjDpRbYO840ak11SUnJxOXLlx87u0qwaYXFantMpw0By9qpO44q0us0mH/jOFx52SAmSWlq/uc/XsWub3bi1kW3wmA0BH3SAC3CGhoaEB1N223OfYzznISM8C8wMmYNBM4FWebQ5BAgyRwMGgkalYJK+2DsrloOhyfqnAVY24gxh4McHC5ERUZi3DcFSM+rgUctwKkWIQkc6lKj7bs566Xz/7Ly4NmAZZsQLdbfanXah2fPnv33cy5gICPsYpCwN9y6MiY6OenNiqraa/3PKg24foqMoekGXJGdxbxRtOI/euQI01NHjhmJjIwMv0DAgHNlul99fT0iIiLarbIDz4VDon4/xsS+DJ3gDQgrrNbi+bUp4Dlg+S0lyIh3QAGP3MZrcLB2PlMVAk1URpoJvG7h1j4A0sUNBgOzQETVWHHZ5ycQbqaQWK9y7THo3EXRuhlZ/3z84zM9j2KAl9977+NOt/sBrVa7Yvbs2S//5IG9Zu6DppjE/i/XNjTMCRZY8lr1TxKhdlVDobfFCAJzRSYkJiDKFNXKxulbsbfEmjKh6T0T9kzeK9+UqtfTfrFzSQquTP4fxGp/9C64OGDD9lg8+68U/HpBCWZOqoHQvBhzyuHYWfkAquxDOmWC9GvSTwlU0lVpUec1i522Mvjsu766xVU0YfTX+TBYnOBJPdJqYEuP//0zfzP/z0p0vKXmxRdfTIiNiXlZluXRakFYMnvevE87Ldy5NFMn95z7/HYeCjP+xofCk1OTVzWabbcpshxUYGhafBgmjoyDWvTe1jZqyuduJf9/TU0N6uvqmTmJzD2k25F+mpSSxAz5/p3tqyapFiS5jMbgF0a0yAoTa3Bd6i8hcE6WpYfj8NCqTLglDn+47yRcNrKbKjAZ3FR4HK6fi8O1c8FxZz58hiQqxd9S+WkgEbBUv8qKSmauI3cyWTAiIo2IT4hnA5fVTVEQVWOBsdEO0S1Bq/Aek6B5/JX/Ln+qI2DnDh6snvbAAzO1ev3fBI7bu2PbzkUvrnnxguwu7lXAUnzxvGXP/5fZ6nhSkk6H9HU2NsjNelV2AuJN2naXEqgupwv5eQXY9/0PKCwogrmpCR7fue/Nd1BDkEROSk7GmMvGYODgAQwCn1QiWEnKmkymoPVYmuZNmgJMTfmNV3/mgPI6NRatHMT2n9U0qGG183h6eT7iIryRfsWWy/FNxS/Bcx27+EkvNZvNbACRVG1sbMKur3fh0L6DLJhGkuRW6g95uPpkpOPSy8dh4OCB4EW+5TgnUSW6Y+psj57Ys2PVp/X1LMi4urqaM5vN6ptnzkzWGYyzZE65Pyoqyu2wWu+4a9myzy6EdPXOg70sjZk4I7XP4Cv+bre7J7kld5jS6SFZCqKNWlx7eTI0qvZCuampCZ989AmOHDrKVvqUfHGk3j1U3i0p1ME+lUCjViOzXyaLpCKXJiX6rra2lknitt6izpqQgI1UF2Na6gpvvAAP7DgQgQ2fxyJ7sJmdWDNlTD1mTqzxblrhgPymK7GnalmHwNKsQPUimypN/wTolo1bmFuZLCA8OT+abcin6+eNxw3T61nAzc8mTYCq2UxHtliL2ZznsFrZ8UzsSAieXiwpq1wuV4zL5eqj1WrrwnS6p5/+y1/eKCwsPJc9YZ01U0Df9zpgqdTpkyZpL+8/eUVp7qHfOh22s9p4CKTMzDTcMH1yK1cmSVbqyJx1OTiZX8ikIpm7mAdKo2k29p9+lwHpgjTFOp2ulg2EKWkpmHvrTUwPpkQLL5K6dH9wiYPI23Ft6q+gF7wzqVviwYkKisq12LYzCoumV8Kg9k7/MkR8V30XTpongetg2xWVg8oQFhbGBuG/Vq9lTgMaSOQcoTp6nRmn9XLfosxXv2uun4rJV01mdaXrrBaL2+F0upkq5XU7K7IsS06ns1hQuK9cLsfahx59dPeFPiCvVwJL4/uOux66L/fgd3+2WBrPSgdJjUGXDMKMm1pHIlEHbVy/EXv37GU6IW3WI+niLx19eq5v2qdPmvqtVltLGN7AQQOwYPECtuGPVALSAQmUYBNNFCOi38KAiI/BNR+K2GAX2fb0KdkNTML6jPl1rr7YVfkALO64do+hxRXprSTpqU60teadf61ncQN6fRhzF/uSr37M7dsML0lnql9EhBGL71zM4gsEQZBUKtXr1oaGNRaLhV5VxgzVHo9Hdtps9Yc++aR49fbtpHwHZ8AOtpECuL7XAnv37cvu//HIkacsFstZ3UssdK4NsNQ5eSfysObVNXTSBJM2BgN1pshAjIqKwqBLBqJPejpIFywqLMKxH4/BbrOzjqUNhVYbuTK9GwYXLlmIoSOGMpsuSeFAHQht218n1iM79lUk6feyrq+3ifh6XwSuHlcPrejdn+ZUDPiu8h6U2kZ32H1kDybpSpsNKX727dX/Qu6xEwg3hrPBRKxFRkWyNklLS4PdYWfB51Q/WpAxnd7lYguyyVdPxpSpV5JElnUazZN7vv/+v7vx4I0A8Av+kl4L7LK7719Wdqr4SafDqWX+eL/BfTqunl7mraBPRho/+erJLQosQfnvLf/Gji+/Zi1C07hW6xXUqWmpmDV3NiJNkcjISEdeXgELzG6sb8B777zHVteUaKp1OLzbYIaNGIp58+exGADfwutczhAg5TRMrMaImLcQpzsKATbSoEGGDbK5mt2JONZwI4rMl3e4vPDprjTg6Pmk8rz+8htw2h0s0IbKmtE3AzPmzGT1S0/vg9zcPGYJqamsxqYNm5h1hJLFYkVGZjrm3zafZgxJp9P9fs+ePX8MARv8IGJ3zJx5c+bokSOnGQwGo5dEyavNNR8S5zvSR+AEzhgTma7TaRfJssSkMUnNt19/G3m5+UzqGI3hrINpAbVo6W3wyBISEuIxYEB/VFVV48SJE0xq1VXX4u0332aSiHTapiYzgyAmJhqLf7EE0dEmttih/5Eh3mf+6mzngb/K4V1zuWDS5iJBdwhasQ4eWYsGVx+UW0fB5olgryz13eNzUdMn1YsGn88WfDL/JNa+uZZFi5EdOjo2GrctvQ1OtxvJyYkYMGAAysrKcOJELpPIVeWVWPf2O3A6HAziMIMBt9+zlGYct1ar/fX111//v71h2j8bMr1VwraoYYHw/ten/zo6JSPlI0VRmNJHwdevvfQ6KsorvKF8hjAG4JSpU3D9jOlscdanTx+mGhAItPpnZqImM175+ys4dOAQmzrJVET3kc56252LkNYnjYFE0FKH+wN7Jmjb6slUPl+MjXePmdcsoIDiXymEsOMa04Aj8xULVWy+6MfDP2LD+g1skUVp6rVTMfnqK1m5+vbNQGRkFCTJ01I/Ummef+Z5tkBjuy60Wiz9xRIayHZRFJfMnDnz3RCwgRDXxWueeOKJ5MTExDUOh2My7XIl8LzTez2TLDqtloG39K6lrFMJQHKz+jqedLqSklLk5+fh+93fY9vWbaxEZouFgUmg3DjnRqSmpbSU1BfB1TKy/Ejz5dtuF0AHNPoDHWycAkVofbbtc9AZBOS9u/PuOzFh0s9gDA9n9tmW+jmdKD5VgpKSEny8ZSt27tjJZhwK6p45bwbp5Ba1Wj1j6dKln3exK8777b1dwgbUAPfdcV9GZWPlu7m5udk+WypN6yQ9NaIGWpUX2AWLFiBrYBbS09OR2TeTdTIlkjy7d39Lph22VcUHrNVlhVui3Qdg0LZ1dwZUuAAv6kyt6Cgbdr6BB9CKWhbLu+j2RUhKSUa/fllswcVMW836+I5wwBDTAAADkElEQVSvv2EWkO3/+QK7vtnFvrN7HBDVAgX1OIYNG7Z41apVIQkbYH916bJbb100rLa24uP8/PykthmpBBXC1KQSyJg0ZRIzmJNkGTMmu9mTJbOp/+DBQ2yb9dYPPsKhg4fYlGlxWVgQTW9OakENvdob33DVNVdh5JhRbPYYOXKEt350noLZjP379zOP37trc5B7/ARbQNKAlGRJiYqKqgkPD5/1xRdffNOb60pl+38hYadOnRoWERGxJDIycha5dH2BMx6PR7GarVJVedUou9VhiDJFYuHiheib1RfJycnkfmTSNSYmhpmIvtnxDd55+x2yDihavbY6LjH2R71BT++U9bc/BtpmbY96PesrZpslbMtzOnk3bEteTodTLDlZMtxhd+hpy83iOxYjJTWFna1VU1PLLCBUP7J6fP3lN3jvnRwyzSn6MF250RRxRIHSZG40v7Nj5w7ahNjr3/YYaOP39oF3xvLNxVyhYVLDCw11DXfRGa1k1rrtjtsYsMWnipnkjTAaUVVRhbdXv4Xa2jra02XX6DRPOmTHUwEe43PB2ueqq66K4Dzc8/W19T+XZVnom9kXi5YuQkxcDE6dKmELvMhIIztWad1b65hZi+M4q16r/31CRsJfL7Z3kf2/B5ZIys7OHhKmMqy2mM2jaFEWZghDVr8sxMbHsSmGDOuFJwuZU4DsZ6JK3KB4lF9/d/g7OpKytydu4sSJQzg395LFbLmMZk1aVNJ5B3QUEjk/Sk+V4GTBSV/97DzPbzC7zA8fP368s7MIel3dfxLAkqt39PDRlxv0hpdsVtsgepeA79Bhphc1H+LGcZyD5/kvXR7Xrw4cPXC0t5t4/GjiJ1w6YSJkPO+wO4bSexM6qh8UODie22y1WR87VnAs9yKqX0tVfyrAMi5HjBiRFamPvN3tdN+gQEmXZEkFGQrHc01QkM8J3DqHxZGz7/g+2j14wf3mQYo3fuzYsVk6Iexuh8M+jeOQIksyuffoJR4WSZKOCYLwblN907tHC49WXoT1Y83xUwLW1//C5AmTh+gN+qFOq1NHRwtDQaXH5Tn81Z6vii90NFKQkLa7fPDgwerE8MSBol4c6HQ5jbzCS7zA1zU1Nh3cc3DPRV+/nyKwbTu5daBCV4kJ3X9eWyAE7Hlt3lDm3d0CIWC7u0VD+Z3XFggBe16bN5R5d7dACNjubtFQfue1BULAntfmDWXe3S3wfwHVn1UGHYX7AAAAAElFTkSuQmCC;labelBackgroundColor=#6F59FF;fillColor=#006633;" vertex="1" parent="1">
          <mxGeometry x="100" y="220" width="80" height="40" as="geometry" />
        </mxCell>
        <mxCell id="2JjZRTCmiK5z6nt8Kl7W-6" value="" style="shape=image;verticalLabelPosition=bottom;verticalAlign=top;imageAspect=0;aspect=fixed;image=data:image/png,iVBORw0KGgoAAAANSUhEUgAAAKwAAABVCAYAAADUrA8JAAAAAXNSR0IArs4c6QAAIABJREFUeF7tnQl4VNXZx/93mTWTSTLZVxISVtkJoEIRRBEVZRNUoAi4VFE+tS1abf2kX23VWqv001atC6IFMYIIisW6oCggiuwIZCEJ2fdk9uXe+z3vmUyYLJAZEkL4nJMnz+TJ3HvuWX7nPe953/ecyyGUQi1wEbUAdxGVNVTUUAsgBGwIgouqBXolsJMmTRLF2P5hHgdULifPS1oPp/N4WFklSd1SZkFwKXZRVASHqNB3guBkn+xvUdXy99l6xCMLUoVcaMv7+GPnRdVzP9HC9jpgJ81cHJnWd8z9Lrd8v8fjMTT3SyDlDAhQAC3XcTwHlSC41Wrx7YKDe/741SdvnPqJcnDRVDsQEHqyMvzPH3hhQaPFucrhdEYxtM5nCZvR1WhUlkijfuVbz927CoCnJyscelZwLXA+cQiuJADS0ydpx10366lGi225LMt80Bmc4w0czyM1MfpQ+amCKz5a+1T9OWYTuq0HWqBXATtz8QORemP/f9Q1NN4sy3KPlY2A7Z+RWFxTfmj0uleeremBdg894hxboMegCKR8sxY9Eh0e3efNqtr6604Dez6L6NUJCNiBmcklZYU/jsp548nqQMoauubCtMD5pCHoGs36+cq4qITkdWWVNVfKsgwoCjyOJiie7l7AK+AENURdFNORCdhBWSmlpSePjgwBG3S39egNvQrYW+/4Y3x4XMJ7xSVVE7zASjAX7oGrsazbG0UMi4YxayI4jmfADu6XWl5ScGR4CNhub+puzbBXATt32cqE6Mi0jYUllZe1B7Y7i6qgLbBD+qdWVJXkDX/rpZVV3drCocy6tQW6k4IuF2zhXX9MDI9L2niyuOLSHgd2QFpl1ancYSFgu9yN5zWDXgXsLfetTDJF9tlYUFwxrqeBHTYgrbIiBOx5ha07Mu91wEab0t/PLywf29PADh2YVlVacGTYulf/VNkdDRvK4/y0QO8DNip9U35R+ZgOgVUUP8fqOTYI1ZhDOx2WgK0szh0aUgnOsV176LbeB6wp/YP8wvLsVsA2lJHtCY7MJLhNxjM0jc+Pe2Z/LufxQJdXCqHJCtHQ2koQAraHiOviY3odsDGm9A/y2gLbWI7GyaNgHZQOTlEg6zQMOskYBt7mhMJz7H9ivRlSpAG80w2xpqFd08hqER6TEQn/3AwNwmDsd9qsFdJhu0hSD93eq4BddPcTyeFxqR/kF5aN9pewTmsVqhZOReR/vkfNzVNhGT4QMRu2oXretTDu2gc5TIumy4Yj8aUcVC6eAf3RPKStfBVcm/gtArt6wTUwfrUPYfUSjP2uaLHDDhmQWll1Ki9kJegh8M71MRcNsNXzr0bEp3tR9l/zYB47DPGr30fFHTch8rPdkAxaNF45FilPvYHS+xfAsO9HZC1/tsM2qZ57JYy7DyOsxg1jfz9gQ3bYc2WoR++7OIC1VKLq59MQsX0fGq7Mhn1QFqL+vQN1118Bww9HIevUsIwaiNi1H6NmztXQ5RUhedX6dgs0RRRQufg6RP37W+iblFYqwZD+qeVVJXkjQouuHuUv6If1KmDJDtuhDttQBtugdDRemQ0oMhSOAyfLUAQekJvnfZ4DJ8lQeJ7puSDXbptE35GeG7PhC6jVEa1cs4P6pZQ1Fhwd8UYo+CVoiHryhl4HbHRHVgKKJSAGw3SQNapzN20pMgSLHZxHamclGJiZXFxVWjB63SsrQ+GFPUlgkM/qfcBG9nk/v7iiZx0HHI/0ZNPxusrCn+W88WRt8zaaQLfcBNnkocu70gK9CliKJTDEJW4oLO7Z4BfyJERonLVad81Wu8NlEzj5s/XrX9sAoL1e0ZXWDt3b5RboVcBSeGFYTPy7JWXVE71mLRm2ih/httSC68aSkoor6IwISx7GzFqUnHWFMBfthSwryiVDh75SsDP3wSK5iHO73Xx1dbUtBG+XWeuWDLoRg66Xp10AN83NssQCubs90cKNF5qz5RiwluK9UBQF8fHxuS6Xa68syYKoVsMUG7Nm/Xv/+sh/x223lyeUYUAt0KuAnbvkkdjwmIy1ZZW1VzEJ22PpNLDskdQqFLagKFCpVLh54S0fqzTqN+PiYtjIkSRvwdRqL/CCILBfSjzPn4fRFXhDKFRo3zDkgpuX/PfRUX2oLpIkNX311VeH/vznP1f0hlkmBGwzoT4Jy3jlOAarLy2+c7FsijZJokpsRtn7jT8PQbLRlkBfP1xQ2NsViuMUQRCsoijus9lsr65evXrjxxf4wJHeB2xcxtqy8gsrYf2B5Tke8xbM22eKNu3XG/Q8z/OgHxkyR383S9UzikCOa3EQt7Q110W6/aVoBw/uEPpO7qFsOrpPkCQp3e12DxNFUTQYDK8999xzj3/66aeNgcv87r2yVwHLdNjE5LVlFTVTLqRKoNFo4Ha7QWVQq9X2wUMGP5hfnP/a9u3bmZ4yd+7cgNstJyenHQjB3N+93R1cbgUFBXxiYmLiggULrpAk6RFBEJI9ivKrze+//0ZOTk6zYhRcnl29OuCG7+qDArm/o0VXIPd1/ZrWi647775T2fvdXuXA/gOyVqN9ptZau/Lo0aOurj/nos2Bf/3116/WaDSvqtXqst27d8979tlniy5EbXodsNFJyetLymsmXSgJS7rrgkULag7sO+jJy82NBC/8cud3O176qVsIXnjhhWiTKeYFQeCmqlSqe2fPnr3+QrRJrwL21jsejQ+L6XvaDttjQ7i1hM0el/2OwAkb1Wr1kAMHDuRs37n9cI8VpZc+iE6UXLZs2aMej+chtVr9m5tuuunFnzywtM07KjI1p+VcgqA6T4FG5Ybbo4KsBDsOWwN7yZBLXnPIjl/k5OSQztqrVu5BNUn3Xsxv3LhxhcPheEyn0/1m1qxZIWCZazYm8b3CksrLg1UJxmcdxS3jtuPD/ePwyZFRUII69pADZ6uQ3bW5kuSyywmJ8a+s37j+QTK5dm+fX9S58Zs2bVphs9lCwPq6kZ1LEJu48eSpSu+5BAEkEn8Jxno8fN16JIVXoNERiT9sWYhT9bE4bVE6e0YcxysReu6Ap7H0d+bKPEujtbZ4z549hSHp2qrdCNiHbDbb70IStrldKB422j9aKwBgCcp7rvgQnCUX3x42YliWBVHJKfjfz2bA5VEFkIP3bK3URNOPpwqOTdiW81xdQDf99C7iP/jgg4etVutvQ8D6A+u/zTsAKMZmHMesS7Zi61dhmH1NDT74NBpTLrXgy6Ip+PToiABy8AKbnhJ7vK7yyOU5r4WAPUOjhYBt2zDeTYgptM3buwnxLIlUgVhDEx6atg7btgMTRjQy6ZpXosOHO6Ixa6oTf/5kAcobojtVDQjYvmnx+RXFuePeX8PiYUOpfQuEgO0IWGNcyua8wvJRnQFLqsBtl/8HYa6jqKkTYYpw45PdJtw5swwnivVM/dTG9MUrO66HR/JFZXXMIQHbLz2xoLTw+NjzBKzPbMGO8cjKygq7+eabw/v166dVFIXcvZzH4+Ho1HGX68z+CVmWybdPN8iiKJK3VbJYLI5Vq1bVFxYWuv2CU86HZSMEbEfARsSnbM49eXZgqTdGpeXj1pGbsOkzIxbeUIm/rklBYqwLv/75KdjsPF5cn4zrrrDg3yem4ssTQ85qM2AncPdNKmwsOJa9pusSlps7dy4FGQgDBgzIvOGGG8bo9fo4l8ulcblcKqvVqpUkKVOj0V7CcUgAQIo2+ew5SZL4M8UZkEPD7XYrFJsgiqJHEAQC1OV2u8sURfmO47hKnU5nEwShZt++fQd/+OGHo2lpadaVK1cGtnrtfE4JAdshsAmpW3ILykaeScISrCa9Bb+cmoNd3zowYoAFMZFuPP1mKm6ZWo36JhHjhzeizizi090mXDNJxjPb5qPKHHHGIHACdkDfpKKGgmOjgwSWS0lJ0T722GNJFBui0WgGpqSkTBdFcaDL5dLZ7XajLMsmQRA0BGMzlAQmq7p/RFjnvJz5Coql8ZO8LkVRGjUaDZ0kfqK0tHSDx+PZ+/LLL5fs3bvX3gXLRwjYcwJW4bDg0s+RwP+Ak6Va3DG7HFu2R+M/30UhTCtDLSp4dEkR9FoJa7YmwKD3QAkfiNe+nnZGh4IX2OSi6rKC7EA2IZLXZ86cOal9+2bNVBRpEM/z1/A8H2+32zU00OiXYGw76NoFafnF3VJb+KK/goHXH3r/v+lZlJ8gCLJKpSK//1YA723YsGH36tWrHcE8o/naELDnAuyQ5EIszP4AH36uw9IZFUiOdqLBIsLm4fHZbhPGDmnCgBQb809VNKnxz42JmD7Jig+OTMOu/EEd9lOAKgH3zDPPxKrV+kvS0lLu5HmM83g8KR4Ps521uNYIGv9fJk0VwOPxsF9FZlM7XC43JI+HosGQkJwAc6MZp4pO0RadZuC90Psg5EA7JHjwBKIgQBQFqNQqCPSpUkGn1UFUiyw/USW2gr95oEiiKFbKsvze+++//9e1a9fSO8mCURdCwHYEbGRC2pYTBaUdqgQGjQMrpr2L/fvN6JvswFVj68AiUjlg56EIHDwRhrtmlYNvDkEl9WHPESN2HjRi8gQBf/xoIRod+nb6LFt0ZSQWVJYUjsl5bWVbOyz34IMPRo0ZM/4atZqfLyvSz6AoET7p6ZOabpcb5iYzLBYLbFY77DYb3C4P+5QlGW63h4HKICQpTBJYkpHSJxnjJoxD/vF8/LBnH3g6ayHI5JWkPARRhE6nQ0SUEYlJiYhLjGsVZE7ZCoLg4Xn+04qKiuX33ntvXhCPCgHbMbB9PjxRUDKi7XSqKBzmZu/ArBGf47m3kzDtsjroNKcFRGWdmqkDUUZai5xOFFew6cto3HVTBXaevBRv7ZrSTjUgYLPSE/OrSgvH+gHL/+EPz/SJS4ybGGEMu4/nlP6KLIcrVJDm5HQ40djQhNJTpaivrW+Bk2AMNA0dORSZ/fti//f7UZB7sh1gvnyCjflWiSL6ZPZB/8H9mQT2TzzPkxK9acuWLcveeuutQI/IDwHbtlMXLH86JTo68cMTBaXD2wKrFt145qbX0D+xBN8dCUdFFXXCaTB8u5c6YiXWJCF7SBNK6+PxyIYlqLf53gjqLQEBm9knIbe6rOjSnNdW1i9adK9p7Pjx001G1V2CgNGKLGn8wbFarKgorUBJcQmaGs1sqmf50MZGv21Uvimd1AL6pelektzsb0qiKGLKtCmIjonGto+2oaS4tEPOmfRstW+MVALvtO/7f0fPpqJk9s/E4GGDO5K0ZlEUH33iiSde3rt3b+tR3vFoC7lm27bLHcufTgmLSfroeH7JsI6sBMNSCtAvvvmNMoELMe+eQg4oqo3DD0VZkJXW0y5t9U5PjT1sMPA3R/CeYTHRYfcb9cIQlciF+SQqlaeJSdMylBaVwOF0tuiYvoUWTfkEL9lSPR43UwG8oJ5eiFGdfXppTGwM5twyh201f29dDmqqAzt05vSgIOsAz8AlgOlXrdZArVYxqSoIXp12RPZwpKantmpuykOtVu8/fPjw7Mcee+xkADNCCNhggaXp3W9GDqCNW19CzgafftvyjUISlsPoQQm1mclhBzhIo/UaPsJfohKoxYXFKC0uhd3mgCRLcHvccNgdcLmccDqdDFQfnAEVTFGQNaAfps+ajtqaWmx4ZwNsVjr+oCvp9GHOJHkJYJVKjaSUREy9bip0el2rzFUqld3pdN4+f/78dQE8NQRssMAG0KhBXUIrbpNRjWFZUUiN00MQvOopSR+SinU1dSgqKERB3knYbHY4nQ4Gp09ydsWOSveOv2ICxl8xHsePHsPWzVvhcZ+n9zJzHK678VoMHT60lamNJLNOp9v87LPPztm+fXtnD2fAWm223+lD8bBezrwqQeJHx/NLO1QJgqLxLBcTLBq1gCF9I9EvJRwGvdhyVgd1Iq32Dx84jIP7D8JitjDJ6YXTp4cEGyDevjCUH6kD/Qb0w7c7v8X2z748PweGkO1KljFoyCDMmDOjnbNCFMVD+fn50x5++OHO3t7Hb9q0eYXNZgnFw/q607voStrSkZWgu2AVBQ7pSQYMy4xEpEHdki1JVYLzxPFc7Nn5LZoam7rrkR3mQ7rl7ffcDmOEER9u+pANkLbnIQRTgLaLLrLbks2PtqnTd6ZoE+YunAedTttqD4VGo6lXqVSLp0+fvrmT5/GbN29eYbGEgG1pJ4rWiujENRtMJ/pfSxItwqDG8KxIZCSFg87E8LcoFJ0swq4du1BWWsb00U7NSOyFNm3PpG/9v45UBgKJ7ouLj8OSXyxhNuR1b76DkuJT3oWTyrtQogWT/7kttIjS6rSgLejMTEXvyG32Zqk1amhosaWh+9iJLczyIbbosSLUGg0SkhLYM/yTKIpOrVb7m+nTp/+tE0cCv3nT5hWWkIQ93XwsgNv/fNhzpdPvPoJSreaRmWTAyP4m6LVCC6gEVF1tHb795lsU5BWwqZMWYCSV2IEZzStw/78FXmj+v9fb5IVMxT4Fuqf5PoJOo6UVu5oBRvl6vVUcg84QbmDmLEqkgvierRKbV/hi6wgzdi8R3Axqq8FIpDVbI/z/7wOaPn1Oi7Y2WY7jJL1e/48//elPD+3atYtiDc6UfMDSjoNHQnu6AJzLjoOzMU2wEqCjBkQhI0EPjUbdSocj3bS6qpqpAtSRPkBFkm48CyjxAsggFFqAbJFu7EA57/fsJcvNqi0NBJvNxnRfNjU3xwwQwFqt1iuZm8/u8i3yfPXwfRfMWCUgD+0/hNzjuaw8LCkKomNjcOn4caxuVquVDYrw8PBWWVP0l16v/6KkpOTWe+6552xOhBCwbTulK5sQ2+ZFjGSlReOyIbE4su977N65G7Nvns2m4rZBIi2wnMFD5TP8k7QMJDnsdmzd/DHKy8pPX64AI7JHYPzE8WyDpMi5oBdroeKtkBQVHFIknNKZ3kHW+VNphiC1wnd8KIEfERmBS4ZewqS/D1gDAUtjqFmbIdgNBkNJYWHh5E5ctfzmTZtWWGgTokb3yKw5s17oQuRX5xU6wxVdX+6e86Pb3zh38coEU0LKu0Vl1T/rLID7bI8lY/qksf0xffJQxJiM+H7PXjz+28cxd8E8pPftwwJQgklkyrLb7YiMjAzoNip7Y0MjcyC0JJL2Bj0M4RGI1R1FZvhnMGkLoOLtkBUK3olCkXkiiswT4FFaHGsBPS+QixobG5mkjeJVECQFksjDpRbYO840ak11SUnJxOXLlx87u0qwaYXFantMpw0By9qpO44q0us0mH/jOFx52SAmSWlq/uc/XsWub3bi1kW3wmA0BH3SAC3CGhoaEB1N223OfYzznISM8C8wMmYNBM4FWebQ5BAgyRwMGgkalYJK+2DsrloOhyfqnAVY24gxh4McHC5ERUZi3DcFSM+rgUctwKkWIQkc6lKj7bs566Xz/7Ly4NmAZZsQLdbfanXah2fPnv33cy5gICPsYpCwN9y6MiY6OenNiqraa/3PKg24foqMoekGXJGdxbxRtOI/euQI01NHjhmJjIwMv0DAgHNlul99fT0iIiLarbIDz4VDon4/xsS+DJ3gDQgrrNbi+bUp4Dlg+S0lyIh3QAGP3MZrcLB2PlMVAk1URpoJvG7h1j4A0sUNBgOzQETVWHHZ5ycQbqaQWK9y7THo3EXRuhlZ/3z84zM9j2KAl9977+NOt/sBrVa7Yvbs2S//5IG9Zu6DppjE/i/XNjTMCRZY8lr1TxKhdlVDobfFCAJzRSYkJiDKFNXKxulbsbfEmjKh6T0T9kzeK9+UqtfTfrFzSQquTP4fxGp/9C64OGDD9lg8+68U/HpBCWZOqoHQvBhzyuHYWfkAquxDOmWC9GvSTwlU0lVpUec1i522Mvjsu766xVU0YfTX+TBYnOBJPdJqYEuP//0zfzP/z0p0vKXmxRdfTIiNiXlZluXRakFYMnvevE87Ldy5NFMn95z7/HYeCjP+xofCk1OTVzWabbcpshxUYGhafBgmjoyDWvTe1jZqyuduJf9/TU0N6uvqmTmJzD2k25F+mpSSxAz5/p3tqyapFiS5jMbgF0a0yAoTa3Bd6i8hcE6WpYfj8NCqTLglDn+47yRcNrKbKjAZ3FR4HK6fi8O1c8FxZz58hiQqxd9S+WkgEbBUv8qKSmauI3cyWTAiIo2IT4hnA5fVTVEQVWOBsdEO0S1Bq/Aek6B5/JX/Ln+qI2DnDh6snvbAAzO1ev3fBI7bu2PbzkUvrnnxguwu7lXAUnzxvGXP/5fZ6nhSkk6H9HU2NsjNelV2AuJN2naXEqgupwv5eQXY9/0PKCwogrmpCR7fue/Nd1BDkEROSk7GmMvGYODgAQwCn1QiWEnKmkymoPVYmuZNmgJMTfmNV3/mgPI6NRatHMT2n9U0qGG183h6eT7iIryRfsWWy/FNxS/Bcx27+EkvNZvNbACRVG1sbMKur3fh0L6DLJhGkuRW6g95uPpkpOPSy8dh4OCB4EW+5TgnUSW6Y+psj57Ys2PVp/X1LMi4urqaM5vN6ptnzkzWGYyzZE65Pyoqyu2wWu+4a9myzy6EdPXOg70sjZk4I7XP4Cv+bre7J7kld5jS6SFZCqKNWlx7eTI0qvZCuampCZ989AmOHDrKVvqUfHGk3j1U3i0p1ME+lUCjViOzXyaLpCKXJiX6rra2lknitt6izpqQgI1UF2Na6gpvvAAP7DgQgQ2fxyJ7sJmdWDNlTD1mTqzxblrhgPymK7GnalmHwNKsQPUimypN/wTolo1bmFuZLCA8OT+abcin6+eNxw3T61nAzc8mTYCq2UxHtliL2ZznsFrZ8UzsSAieXiwpq1wuV4zL5eqj1WrrwnS6p5/+y1/eKCwsPJc9YZ01U0Df9zpgqdTpkyZpL+8/eUVp7qHfOh22s9p4CKTMzDTcMH1yK1cmSVbqyJx1OTiZX8ikIpm7mAdKo2k29p9+lwHpgjTFOp2ulg2EKWkpmHvrTUwPpkQLL5K6dH9wiYPI23Ft6q+gF7wzqVviwYkKisq12LYzCoumV8Kg9k7/MkR8V30XTpongetg2xWVg8oQFhbGBuG/Vq9lTgMaSOQcoTp6nRmn9XLfosxXv2uun4rJV01mdaXrrBaL2+F0upkq5XU7K7IsS06ns1hQuK9cLsfahx59dPeFPiCvVwJL4/uOux66L/fgd3+2WBrPSgdJjUGXDMKMm1pHIlEHbVy/EXv37GU6IW3WI+niLx19eq5v2qdPmvqtVltLGN7AQQOwYPECtuGPVALSAQmUYBNNFCOi38KAiI/BNR+K2GAX2fb0KdkNTML6jPl1rr7YVfkALO64do+hxRXprSTpqU60teadf61ncQN6fRhzF/uSr37M7dsML0lnql9EhBGL71zM4gsEQZBUKtXr1oaGNRaLhV5VxgzVHo9Hdtps9Yc++aR49fbtpHwHZ8AOtpECuL7XAnv37cvu//HIkacsFstZ3UssdK4NsNQ5eSfysObVNXTSBJM2BgN1pshAjIqKwqBLBqJPejpIFywqLMKxH4/BbrOzjqUNhVYbuTK9GwYXLlmIoSOGMpsuSeFAHQht218n1iM79lUk6feyrq+3ifh6XwSuHlcPrejdn+ZUDPiu8h6U2kZ32H1kDybpSpsNKX727dX/Qu6xEwg3hrPBRKxFRkWyNklLS4PdYWfB51Q/WpAxnd7lYguyyVdPxpSpV5JElnUazZN7vv/+v7vx4I0A8Av+kl4L7LK7719Wdqr4SafDqWX+eL/BfTqunl7mraBPRho/+erJLQosQfnvLf/Gji+/Zi1C07hW6xXUqWmpmDV3NiJNkcjISEdeXgELzG6sb8B777zHVteUaKp1OLzbYIaNGIp58+exGADfwutczhAg5TRMrMaImLcQpzsKATbSoEGGDbK5mt2JONZwI4rMl3e4vPDprjTg6Pmk8rz+8htw2h0s0IbKmtE3AzPmzGT1S0/vg9zcPGYJqamsxqYNm5h1hJLFYkVGZjrm3zafZgxJp9P9fs+ePX8MARv8IGJ3zJx5c+bokSOnGQwGo5dEyavNNR8S5zvSR+AEzhgTma7TaRfJssSkMUnNt19/G3m5+UzqGI3hrINpAbVo6W3wyBISEuIxYEB/VFVV48SJE0xq1VXX4u0332aSiHTapiYzgyAmJhqLf7EE0dEmttih/5Eh3mf+6mzngb/K4V1zuWDS5iJBdwhasQ4eWYsGVx+UW0fB5olgryz13eNzUdMn1YsGn88WfDL/JNa+uZZFi5EdOjo2GrctvQ1OtxvJyYkYMGAAysrKcOJELpPIVeWVWPf2O3A6HAziMIMBt9+zlGYct1ar/fX111//v71h2j8bMr1VwraoYYHw/ten/zo6JSPlI0VRmNJHwdevvfQ6KsorvKF8hjAG4JSpU3D9jOlscdanTx+mGhAItPpnZqImM175+ys4dOAQmzrJVET3kc56252LkNYnjYFE0FKH+wN7Jmjb6slUPl+MjXePmdcsoIDiXymEsOMa04Aj8xULVWy+6MfDP2LD+g1skUVp6rVTMfnqK1m5+vbNQGRkFCTJ01I/Ummef+Z5tkBjuy60Wiz9xRIayHZRFJfMnDnz3RCwgRDXxWueeOKJ5MTExDUOh2My7XIl8LzTez2TLDqtloG39K6lrFMJQHKz+jqedLqSklLk5+fh+93fY9vWbaxEZouFgUmg3DjnRqSmpbSU1BfB1TKy/Ejz5dtuF0AHNPoDHWycAkVofbbtc9AZBOS9u/PuOzFh0s9gDA9n9tmW+jmdKD5VgpKSEny8ZSt27tjJZhwK6p45bwbp5Ba1Wj1j6dKln3exK8777b1dwgbUAPfdcV9GZWPlu7m5udk+WypN6yQ9NaIGWpUX2AWLFiBrYBbS09OR2TeTdTIlkjy7d39Lph22VcUHrNVlhVui3Qdg0LZ1dwZUuAAv6kyt6Cgbdr6BB9CKWhbLu+j2RUhKSUa/fllswcVMW836+I5wwBDTAAADkElEQVSvv2EWkO3/+QK7vtnFvrN7HBDVAgX1OIYNG7Z41apVIQkbYH916bJbb100rLa24uP8/PykthmpBBXC1KQSyJg0ZRIzmJNkGTMmu9mTJbOp/+DBQ2yb9dYPPsKhg4fYlGlxWVgQTW9OakENvdob33DVNVdh5JhRbPYYOXKEt350noLZjP379zOP37trc5B7/ARbQNKAlGRJiYqKqgkPD5/1xRdffNOb60pl+38hYadOnRoWERGxJDIycha5dH2BMx6PR7GarVJVedUou9VhiDJFYuHiheib1RfJycnkfmTSNSYmhpmIvtnxDd55+x2yDihavbY6LjH2R71BT++U9bc/BtpmbY96PesrZpslbMtzOnk3bEteTodTLDlZMtxhd+hpy83iOxYjJTWFna1VU1PLLCBUP7J6fP3lN3jvnRwyzSn6MF250RRxRIHSZG40v7Nj5w7ahNjr3/YYaOP39oF3xvLNxVyhYVLDCw11DXfRGa1k1rrtjtsYsMWnipnkjTAaUVVRhbdXv4Xa2jra02XX6DRPOmTHUwEe43PB2ueqq66K4Dzc8/W19T+XZVnom9kXi5YuQkxcDE6dKmELvMhIIztWad1b65hZi+M4q16r/31CRsJfL7Z3kf2/B5ZIys7OHhKmMqy2mM2jaFEWZghDVr8sxMbHsSmGDOuFJwuZU4DsZ6JK3KB4lF9/d/g7OpKytydu4sSJQzg395LFbLmMZk1aVNJ5B3QUEjk/Sk+V4GTBSV/97DzPbzC7zA8fP368s7MIel3dfxLAkqt39PDRlxv0hpdsVtsgepeA79Bhphc1H+LGcZyD5/kvXR7Xrw4cPXC0t5t4/GjiJ1w6YSJkPO+wO4bSexM6qh8UODie22y1WR87VnAs9yKqX0tVfyrAMi5HjBiRFamPvN3tdN+gQEmXZEkFGQrHc01QkM8J3DqHxZGz7/g+2j14wf3mQYo3fuzYsVk6Iexuh8M+jeOQIksyuffoJR4WSZKOCYLwblN907tHC49WXoT1Y83xUwLW1//C5AmTh+gN+qFOq1NHRwtDQaXH5Tn81Z6vii90NFKQkLa7fPDgwerE8MSBol4c6HQ5jbzCS7zA1zU1Nh3cc3DPRV+/nyKwbTu5daBCV4kJ3X9eWyAE7Hlt3lDm3d0CIWC7u0VD+Z3XFggBe16bN5R5d7dACNjubtFQfue1BULAntfmDWXe3S3wfwHVn1UGHYX7AAAAAElFTkSuQmCC;labelBackgroundColor=#6F59FF;fillColor=#006633;" vertex="1" parent="1">
          <mxGeometry x="100" y="370" width="80" height="40" as="geometry" />
        </mxCell>
        <mxCell id="2JjZRTCmiK5z6nt8Kl7W-9" value="" style="rounded=0;whiteSpace=wrap;html=1;labelBackgroundColor=#6F59FF;fillColor=#e1d5e7;strokeColor=#9673a6;" vertex="1" parent="1">
          <mxGeometry x="260" y="460" width="420" height="320" as="geometry" />
        </mxCell>
        <mxCell id="2JjZRTCmiK5z6nt8Kl7W-12" value="" style="endArrow=classic;html=1;rounded=0;entryX=0.5;entryY=1;entryDx=0;entryDy=0;entryPerimeter=0;" edge="1" parent="1" source="2JjZRTCmiK5z6nt8Kl7W-11" target="2JjZRTCmiK5z6nt8Kl7W-15">
          <mxGeometry width="50" height="50" relative="1" as="geometry">
            <mxPoint x="133.5200000000001" y="442.03" as="sourcePoint" />
            <mxPoint x="342.8648648648648" y="440" as="targetPoint" />
            <Array as="points">
              <mxPoint x="140" y="480" />
              <mxPoint x="345" y="480" />
            </Array>
          </mxGeometry>
        </mxCell>
        <mxCell id="2JjZRTCmiK5z6nt8Kl7W-13" value="" style="rounded=0;whiteSpace=wrap;html=1;labelBackgroundColor=#6F59FF;fillColor=#ffe6cc;strokeColor=#d79b00;" vertex="1" parent="1">
          <mxGeometry x="285" y="200" width="120" height="138" as="geometry" />
        </mxCell>
        <mxCell id="2JjZRTCmiK5z6nt8Kl7W-14" value="" style="rounded=0;whiteSpace=wrap;html=1;labelBackgroundColor=#6F59FF;fillColor=#dae8fc;strokeColor=#6c8ebf;" vertex="1" parent="1">
          <mxGeometry x="440" y="169" width="210" height="190" as="geometry" />
        </mxCell>
        <mxCell id="2JjZRTCmiK5z6nt8Kl7W-15" value="" style="shape=cylinder3;whiteSpace=wrap;html=1;boundedLbl=1;backgroundOutline=1;size=15;labelBackgroundColor=#6F59FF;fillColor=#f5f5f5;fontColor=#333333;strokeColor=#666666;" vertex="1" parent="1">
          <mxGeometry x="300" y="363" width="90" height="60" as="geometry" />
        </mxCell>
        <mxCell id="2JjZRTCmiK5z6nt8Kl7W-16" value="" style="endArrow=classic;html=1;rounded=0;entryX=0.5;entryY=1;entryDx=0;entryDy=0;" edge="1" parent="1" target="2JjZRTCmiK5z6nt8Kl7W-14">
          <mxGeometry width="50" height="50" relative="1" as="geometry">
            <mxPoint x="360" y="423" as="sourcePoint" />
            <mxPoint x="410" y="373" as="targetPoint" />
            <Array as="points">
              <mxPoint x="360" y="480" />
              <mxPoint x="545" y="480" />
            </Array>
          </mxGeometry>
        </mxCell>
        <mxCell id="2JjZRTCmiK5z6nt8Kl7W-17" value="" style="rounded=0;whiteSpace=wrap;html=1;labelBackgroundColor=#6F59FF;" vertex="1" parent="1">
          <mxGeometry x="465" y="193" width="165" height="30" as="geometry" />
        </mxCell>
        <mxCell id="2JjZRTCmiK5z6nt8Kl7W-18" value="Text" style="text;html=1;resizable=0;autosize=1;align=center;verticalAlign=middle;points=[];fillColor=none;strokeColor=none;rounded=0;labelBackgroundColor=none;" vertex="1" parent="1">
          <mxGeometry x="205" y="450" width="50" height="30" as="geometry" />
        </mxCell>
        <mxCell id="2JjZRTCmiK5z6nt8Kl7W-19" value="" style="rounded=0;whiteSpace=wrap;html=1;labelBackgroundColor=none;" vertex="1" parent="1">
          <mxGeometry x="300" y="230" width="90" height="30" as="geometry" />
        </mxCell>
        <mxCell id="2JjZRTCmiK5z6nt8Kl7W-20" value="" style="rounded=0;whiteSpace=wrap;html=1;labelBackgroundColor=none;" vertex="1" parent="1">
          <mxGeometry x="300" y="264" width="90" height="50" as="geometry" />
        </mxCell>
        <mxCell id="2JjZRTCmiK5z6nt8Kl7W-21" value="" style="rounded=0;whiteSpace=wrap;html=1;labelBackgroundColor=none;" vertex="1" parent="1">
          <mxGeometry x="465" y="260" width="75" height="30" as="geometry" />
        </mxCell>
        <mxCell id="2JjZRTCmiK5z6nt8Kl7W-23" value="" style="rounded=0;whiteSpace=wrap;html=1;labelBackgroundColor=none;" vertex="1" parent="1">
          <mxGeometry x="570" y="260" width="75" height="30" as="geometry" />
        </mxCell>
        <mxCell id="2JjZRTCmiK5z6nt8Kl7W-24" value="" style="rounded=0;whiteSpace=wrap;html=1;labelBackgroundColor=none;" vertex="1" parent="1">
          <mxGeometry x="465" y="308" width="75" height="30" as="geometry" />
        </mxCell>
        <mxCell id="2JjZRTCmiK5z6nt8Kl7W-25" value="" style="rounded=0;whiteSpace=wrap;html=1;labelBackgroundColor=none;" vertex="1" parent="1">
          <mxGeometry x="570" y="308" width="75" height="30" as="geometry" />
        </mxCell>
      </root>
    </mxGraphModel>
  </diagram>
</mxfile>
